<svg xmlns="http://www.w3.org/2000/svg" enable-background="new 372.673 -1489.347 3000 3000" viewBox="372.673 -1489.347 3000 3000" id="online-payment"><path fill="#93E5B6" d="M1692.303,1002.482H3045.45c-35.714-64.452-111.605-44.47-193.307-46.19
		c-15.271-48.183-57.586-47.173-148.743-32.334c115.484-105.316,79.454-208.783-121.95-141.344
		c230.044-313.176-126.569-384.75-179.231-391.014c-66.357-7.914-371.394,40.864-209.717,366.987
		c-195.861-81.289-249.444,14.795-101.626,183.856C1949.663,949.064,1780.459,980.081,1692.303,1002.482z"></path><path fill="#93E5B6" d="M699.896,1002.482h1069.973c-69.408-16.123-213.222-35.214-277.919-36.577
		c-12.092-38.155-45.601-37.355-117.785-25.605c91.449-83.397,62.917-165.33-96.568-111.926
		c182.165-247.995-100.227-304.673-141.929-309.633c-52.547-6.267-294.096,32.359-166.068,290.607
		c-155.097-64.371-197.528,11.716-80.476,145.591C777.3,960.182,737.622,973.303,699.896,1002.482z"></path><path fill="#11405C" d="M2283.346-729.449c-0.184,0.619-0.313,1.253-0.491,1.877c8.769-28.734,23.161-55.331,42.545-78.224
		c34.11-40.278,85.784-37.85,120.145-19.336c-0.046-0.034-0.091-0.068-0.136-0.102c0.094,0.053,0.175,0.118,0.269,0.166
		c1.435,0.774,2.754,1.638,4.123,2.465c10.501,6.276,20.032,14.287,27.917,23.792c8.974,10.875,15.642,23.439,21.462,36.126
		c5.921,12.655,10.747,25.734,17.585,37.523c3.453,5.845,7.34,11.42,12.126,16.08c4.701,4.615,10.421,8.604,16.072,12.397
		c22.726,15.327,49.741,23.124,75.896,32.306c13.307,4.536,26.087,10.637,37.914,18.178c11.562,7.866,22.605,16.842,30.862,28.118
		c-9.188-10.461-20.408-18.851-32.269-25.851c-11.926-6.938-24.607-12.495-37.795-16.456c-13.342-3.963-26.582-8.306-39.73-13.144
		c-13.088-4.908-26.12-10.696-37.881-18.624c-5.823-4.029-11.548-8.088-16.733-13.275c-5.137-5.12-9.202-11.12-12.742-17.268
		c-6.995-12.399-11.752-25.573-17.056-38.342c-4.567-11.001-9.862-21.676-16.521-31.475c17.634,30.526,23.923,68.328,38.406,87.156
		c33.368,43.372,99.521,38.355,154.919,79.29c57.363,42.386,63.93,144.061-9.584,203.533
		c-69.287,56.044-226.036,40.467-315.047-57.707c-57.809-63.757-79.874-136.471-73.595-202.63
		c-3.271,28.696-2.027,57.808,4.441,85.827c5.107,21.634,13.042,42.582,23.74,62.045c10.7,19.452,23.895,37.541,39.06,53.791
		c15.159,16.232,31.59,31.439,49.782,44.228c18.056,12.974,37.774,23.579,58.36,32.009c20.598,8.421,42.223,14.432,64.292,17.796
		c22.031,3.476,44.56,4.663,66.871,2.305c-44.48,6.618-90.603-0.054-132.767-16.052c-42.276-16.216-79.984-43.377-110.538-76.618
		c-30.491-33.288-53.637-74.154-62.815-118.613C2265.065-640.485,2268.678-687.065,2283.346-729.449z"></path><path fill="#D7A28E" d="M2341.052,901.413c-0.451,4.024-3.404,65.757-5.452,82.782c-7.223,7.339-49.419,2.219-51.89-6.885
					c-2.468-9.106,3.485-83.065,3.485-83.065L2341.052,901.413z"></path><path fill="#FFC439" d="M2339.028,1054.463c-6.025,2.752-136.3,1.454-149.117,1.587c-12.818,0.13-8.365-46.035,31.211-47.373
					l46.406-38.212c1.975-9.283,4.67-19.57,7.142-23.755c4.476-7.484,23.773-8.572,36.242-0.391
					c5.789,3.821,8.396,11.914,9.239,19.971c12.634,0.143,22.095,1.519,22.984,8.491
					C2344.371,984.432,2345.091,1051.709,2339.028,1054.463z"></path><path fill="#DBA12C" d="M2259.988 1029.066c-1.071-4.491-20.551-23.855-40.666-20.043 0 0 8.89-13.367 28.297-2.832C2261.944 1013.969 2259.988 1029.066 2259.988 1029.066zM2316.727 1007.619c.075 7.3 4.593 13.172 10.093 13.114 5.499-.057 9.893-6.023 9.812-13.324-.076-7.302-4.596-13.175-10.093-13.115C2321.042 994.351 2316.649 1000.318 2316.727 1007.619zM2275.939 1001.383c-5.657-3.109-34.019-4.61-27.76-8.5 6.256-3.891 27.45.385 29.077 5.316C2278.882 1003.131 2275.939 1001.383 2275.939 1001.383zM2284.609 991.638c-5.657-3.112-34.019-4.61-27.762-8.5 6.261-3.894 27.452.38 29.079 5.314C2287.555 993.383 2284.609 991.638 2284.609 991.638zM2293.279 981.891c-5.657-3.111-34.018-4.612-27.76-8.503 6.257-3.891 27.45.385 29.08 5.316C2296.223 983.636 2293.279 981.891 2293.279 981.891z"></path><path fill="#11405C" d="M2342.345,1042.728c-0.002-0.098-57.443,3.258-89.58,3.426c-3.59,0.017-6.595-9.155-38.766-9.266
					c-22.278-0.401-29.746,6.733-30.517,7.523c-1.449,1.478-4.113,15.369,2.198,16.413c6.31,1.043,150.998,0.874,153.417-1.628
					C2343.879,1054.253,2342.345,1042.728,2342.345,1042.728z"></path><polygon fill="#2F627C" points="2567.181 -57.103 2348.932 924.84 2269.37 924.84 2259.307 -74.788"></polygon><path fill="#11405C" d="M2501.949,236.342l-152.998,688.474c0,0,65.858-359.428,63.81-398.385
				c-2.264-43.317-34.36-35.047-55.7-50.567c-21.228-15.611,57.976-11.498,63.25-26.937c5.386-15.525-25.244-9.509-50.165-21.906
				c-25.019-12.408,27.464-10.107,63.176-39.652c-20.077-60.152-38.283-205.477-26.404-309.765
				C2407.751,70.281,2501.949,236.342,2501.949,236.342z"></path><g><path fill="#D7A28E" d="M2651.286,904.865c0.22,4.043,7.507,65.416,8.299,82.544c-5.91,8.432-48.373,10.354-52.314,1.783
					c-3.938-8.574-10.287-82.5-10.287-82.5L2651.286,904.865z"></path><path fill="#FFC439" d="M2661.279,1060.979c-5.898,3.013-136.106,7.409-148.904,8.101
					c-12.801,0.689-10.369-45.626,29.111-48.691l44.692-40.203c1.567-9.361,3.81-19.756,6.097-24.044
					c4.145-7.672,23.375-9.602,36.19-1.974c5.95,3.564,8.909,11.536,10.104,19.549c12.628-0.409,22.139,0.552,23.333,7.478
					C2663.557,990.781,2667.217,1057.962,2661.279,1060.979z"></path><path fill="#DBA12C" d="M2581.205 1039.06c-1.265-4.439-21.573-22.935-41.503-18.247 0 0 8.298-13.742 28.146-4.065C2582.5 1023.892 2581.205 1039.06 2581.205 1039.06zM2636.953 1015.154c.394 7.29 5.165 12.958 10.656 12.661s9.62-6.451 9.221-13.74c-.395-7.293-5.168-12.961-10.657-12.662C2640.685 1001.71 2636.556 1007.864 2636.953 1015.154zM2595.931 1010.707c-5.787-2.859-34.188-3.119-28.105-7.28 6.081-4.161 27.441-.816 29.282 4.041C2598.948 1012.324 2595.931 1010.707 2595.931 1010.707zM2604.168 1000.592c-5.788-2.861-34.188-3.118-28.107-7.279 6.085-4.164 27.443-.82 29.283 4.038C2607.187 1002.207 2604.168 1000.592 2604.168 1000.592zM2612.404 990.476c-5.787-2.862-34.188-3.122-28.104-7.282 6.08-4.161 27.441-.815 29.283 4.041C2615.42 992.09 2612.404 990.476 2612.404 990.476z"></path><path fill="#11405C" d="M2664.081,1049.111c-0.006-0.098-57.246,5.766-89.344,7.337c-3.586,0.175-6.99-8.857-39.134-7.562
					c-22.275,0.573-29.423,8.026-30.16,8.848c-1.383,1.54-3.437,15.535,2.913,16.302c6.35,0.767,150.892-5.725,153.199-8.331
					C2666.117,1060.557,2664.081,1049.111,2664.081,1049.111z"></path><polygon fill="#2F627C" points="2637.743 -109.181 2673.813 932.854 2591.588 932.862 2409.075 89.484 2334.801 -82.485"></polygon><path fill="#11405C" d="M2637.723-109.227l36.103,1042.054l-16.482-0.02c-2.713-68.687-16.125-401.129-27.58-438.419
				c-12.724-41.468-41.847-25.645-66.319-35.514c-24.386-9.985,53.444-25.243,54.807-41.501c1.452-16.369-26.798-3.089-53.985-9.058
				c-27.284-5.956,24.185-16.478,51.645-53.817c27.474-37.239-5.872-340.324-15.467-340.253
				c-7.37,0.075-83.157-52.574-126.578-92.264L2637.723-109.227z"></path></g><polygon fill="#FFC439" points="2336.068 -565.942 2149.079 -468.88 2186.427 -352.56 2348.951 -386.728 2354.091 -570.037"></polygon><path fill="#DBA12C" d="M2336.944-515.757v131.566l-150.535,31.642l-37.326-116.357l113.746-58.987
			c2.458,41.782-29.646,84.255-29.646,84.255v37.863c0,0,22.119,5.915,36.097-4.915
			C2283.258-421.596,2336.944-515.757,2336.944-515.757z"></path><path fill="#FFC439" d="M2225.606-72.307c0,0,397,48.368,432.993,8.121c35.993-40.246-115.278-509.816-137.305-517.911
			c-22.026-8.094-170.093,12.454-170.093,12.454S2259.173-251.758,2225.606-72.307z"></path><path fill="#DBA12C" d="M2658.578-64.192c-11.724,13.069-61.428,16.767-123.356,15.82c27.156-7.909,82.069-24.76,83.474-31.724
			c1.803-9.2-31.266-26.051-41.988-32.155c-10.722-6.104,37.616-51.764,40.322-79.362s-327.758,34.392-369.744,17.027
			c1.202-4.471,11.499-46.893,12.802-51.278l345.401-80.923l-12.447-89.959C2636.732-257.722,2679.62-87.663,2658.578-64.192z"></path><g><path fill="#DBA12C" d="M2383.04-588.667c2.215-1.953,64.618-19.923,68.007-19.557s11.524,20.057,14.511,26.169
			c2.987,6.109-10.637,32.246-18.557,36.928c-7.92,4.682-27.349-1.98-33.345-5.784c0,0-11.552,12.389-24.976,13.534
			C2375.257-536.232,2372.811-579.669,2383.04-588.667z"></path><path fill="#D7A28E" d="M2397.435-568.88
					c16.278,1.523,51.942-28.832,46.882-40.858c-4.654-11.039-10.334-42.785-13.182-68.562l-53.424,45.378
					C2378.583-627.112,2379.271-570.558,2397.435-568.88z"></path><path fill="#D7A28E" d="M2435.202-710.686c1.074,13.362-0.353,26.6-1.021,35.336c-2.466,33.373-64.32,59.774-68.327,59.308
					c-14.677-1.707-49.794-21.448-45.668-48.774c4.819-31.825,11.781-35.379,8.828-65.262c-0.318-2.932-0.135-5.505,0.401-7.905
					c9.593,1.267,36.127-3.89,42.154-12.88c3.073,11.577,36.977,17.898,52.071,14.257c2.012,7.025-3.015,37.187,4.594,37.277
					C2430.053-699.283,2432.833-703.757,2435.202-710.686z"></path><path fill="#C18C7C" d="M2365.844-616.017c0.204,1.283,12.023,0.664,25.233-5.568c6.573-3.078,11.912-7.248,15.075-10.902
						c3.196-3.694,4.125-6.666,3.536-7.016c-0.663-0.427-2.625,1.617-6.135,4.265c-3.531,2.652-8.646,5.944-14.802,8.826
						C2376.49-620.593,2365.491-617.623,2365.844-616.017z"></path><path fill="#D7A28E" d="M2430.588-677.833c16.339,10.046,28.39-27.68,13.524-33.869c-4.293-1.789-12.763-2.428-14.814,6.12
					C2427.086-696.357,2427.009-680.033,2430.588-677.833z"></path><path fill="#11405C" d="M2440.255-704.72c-3.455 2.763-9.694 12.024-5.319 18.843 0 0-.136-4.649 2.275-7.537l6.149-2.984-6.219-.305L2440.255-704.72zM2362.216-695.377c2.909 1.074-5.971 11.884-.3 12.851 5.671.965-3.506 3.331-4.726-1.142C2355.972-688.137 2359.636-696.328 2362.216-695.377z"></path><g><path fill="#11405C" d="M2381.132-703.979c-1.209,3.226,0.259,6.757,3.277,7.885c3.018,1.127,6.439-0.571,7.646-3.799
							c1.209-3.226-0.257-6.76-3.275-7.888C2385.762-708.909,2382.338-707.207,2381.132-703.979z"></path><path fill="#FFF" d="M2382.445-705.05c-0.331,1.092,0.136,2.199,1.04,2.474c0.908,0.272,1.912-0.389,2.241-1.478
						c0.33-1.092-0.138-2.201-1.044-2.473C2383.777-706.8,2382.772-706.139,2382.445-705.05z"></path><path fill="#11405C" d="M2406.444-710.302c1.638,0.349,3.439-4.022,2.033-4.933c0,0-24.566-12.119-28.859-8.6
						c0,0-0.781,3.147-0.55,4.175c0.361,1.618,2.382,3.69,5.084,4.263L2406.444-710.302z"></path><g><path fill="#11405C" d="M2340.24-707.974c0.115,3.444,2.817,6.151,6.037,6.043c3.219-0.105,5.735-2.983,5.622-6.427
							c-0.113-3.445-2.817-6.149-6.034-6.044C2342.645-714.294,2340.127-711.416,2340.24-707.974z"></path><path fill="#FFF" d="M2341.048-709.458c0.11,1.132,0.964,1.978,1.906,1.885c0.941-0.092,1.616-1.086,1.506-2.219
						c-0.112-1.136-0.965-1.98-1.906-1.887C2341.611-711.589,2340.935-710.595,2341.048-709.458z"></path><path fill="#11405C" d="M2336.623-721.721c-1.24-0.061-1.636-3.179-0.623-3.664c0,0,19.045-4.559,20.302-2.259
						c0,0,0.896,2.957,0.809,3.815c-0.138,1.346-1.526,2.72-3.578,2.618L2336.623-721.721z"></path></g></g><path fill="#FFF" d="M2373.877-659.858
				c-18.038,3.613-20.176-3.094-27.785-2.795c-4.161,0.165-6.23,3.792-4.74,7.081c0,0,7.117,15.461,27.9,9.346
				C2382.353-650.077,2377.855-660.652,2373.877-659.858z"></path></g><g><path fill="#D7A28E" d="M2639.864-414.414c0,0,64.621,102.455,67.255,118.773c1.125,6.958-22.253,34.363-39.123,39.208
			c-22.692,6.517-41.682-11.65-50.027-22.245c-5.786-7.35-57.408-80.806-57.408-80.806L2639.864-414.414z"></path><path fill="#FFC439" d="M2499.95-583.974l35.789,1.232c0,0,118.153,164.928,142.12,201.647
			c-35.336,27.843-71.612,37.716-103.569,47.825c-31.802-39.769-33.218-45.27-51.142-75.676
			C2488.638-483.346,2499.95-583.974,2499.95-583.974z"></path><path fill="#DBA12C" d="M2500.817-485.452c2.952,15.697,45.757,125.561,71.307,149.464c0,0-30.938-19.156-45.805-59.398
			C2511.228-436.227,2500.817-485.452,2500.817-485.452z"></path></g><g><path fill="#2F627C" d="M1214.078,1061.19c-49.051,0-88.954-39.904-88.954-88.954V-865.522c0-49.05,39.903-88.959,88.954-88.959
			h924.227c49.05,0,88.959,39.909,88.959,88.959V972.236c0,49.05-39.909,88.954-88.959,88.954H1214.078z"></path><path fill="#CDEEFF" d="M1214.078,996.219c-13.224,0-23.983-10.76-23.983-23.983V-865.522c0-13.229,10.759-23.988,23.983-23.988
			h924.227c13.229,0,23.989,10.759,23.989,23.988V972.236c0,13.223-10.76,23.983-23.989,23.983H1214.078z"></path><path fill="#549BEC" d="M1954.879-695.018l-989.312-1.351c-31.091-0.042-56.125,25.172-56.168,56.281l-0.804,588.176
			C908.553-20.84,933.519,4.248,964.61,4.29l989.312,1.351c31.128,0.043,56.41-24.976,56.452-56.049l0.804-588.177
			C2011.22-669.693,1986.006-694.976,1954.879-695.018z"></path><path fill="#91C4F6" d="M1369.676-290.484l-5.328-.008.008-5.955 11.913.017-.057 41.753-6.585-.009L1369.676-290.484zM1384.707-259.993c9.861-8.635 20.238-16.183 20.249-24.372.006-4.353-1.878-7.334-6.747-7.34-4.581-.006-7.048 3.198-7.228 7.895l-6.3-.009c.24-9.049 6.09-13.451 13.477-13.44 8.478.011 13.282 5.115 13.272 12.616-.014 10.138-10.333 17.857-17.043 23.976l18.155.024-.008 5.44-27.834-.037L1384.707-259.993zM1431.914-297.33c8.306.011 12.823 4.83 12.814 10.9-.007 4.983-3.162 8.357-6.428 9.441v.229c4.351 1.323 7.151 4.937 7.144 10.722-.009 6.643-4.712 11.676-13.417 11.664-7.905-.011-14.027-4.142-14.417-12.334l6.301.009c.282 3.897 3.141 6.878 8.066 6.885 4.868.007 7.279-2.968 7.284-6.864.007-5.498-3.541-7.392-10.357-7.402l-1.49-.001.008-5.384 1.546.002c5.899-.05 9.511-1.763 9.517-6.229.006-3.609-2.339-6.016-6.807-6.023-4.582-.006-6.705 2.738-7.11 5.659l-6.357-.009C1418.677-293.281 1424.295-297.34 1431.914-297.33zM1472.262-263.254l-20.731-.028.006-4.924 19.282-27.579 7.905.01-.037 26.862 5.326.008-.008 5.668-5.326-.007-.012 8.707-6.417-.009L1472.262-263.254zM1472.557-268.922l.028-20.219-13.543 20.2L1472.557-268.922zM1531.271-296.334l-.008 5.727-19.186-.026-.016 11.397c1.549-2.059 4.93-3.773 8.654-3.768 10.251.014 13.39 7.636 13.382 13.936-.012 8.304-4.772 14.598-14.451 14.584-8.593-.011-13.57-4.773-14.533-11.303l6.357.009c.855 3.552 3.83 5.849 8.239 5.854 5.612.008 8.139-3.827 8.146-8.982.007-5.44-2.679-8.538-8.121-8.545-3.839-.006-6.418 2.111-7.511 5.204l-6.184-.008.033-24.113L1531.271-296.334zM1563.405-286.496c-.797-3.38-2.798-5.274-6.923-5.279-5.9-.008-8.941 3.998-9.126 14.936 2.066-3.434 6.194-5.261 10.545-5.255 7.504.01 12.823 5.059 12.811 13.763-.011 7.905-4.771 13.912-13.707 13.899-12.141-.017-15.28-8.555-15.262-21.841.018-13.06 4.38-20.957 14.805-20.942 8.133.011 12.193 5.17 12.871 10.727L1563.405-286.496zM1548.089-268.476c-.007 5.155 3.025 8.596 8.579 8.604 4.813.007 7.795-3.256 7.801-8.18.007-4.983-2.509-8.538-8.007-8.546C1552.166-276.604 1548.096-274.03 1548.089-268.476zM1604.219-295.947l-.007 4.866-15.973 36.692-6.585-.009 16.143-36.004-21.194-.029.008-5.554L1604.219-295.947zM1610.923-285.573c.008-6.07 4.541-11.275 13.761-11.262 9.222.012 13.739 5.286 13.73 11.3-.006 4.468-2.587 7.729-5.969 9.387 4.237 1.608 7.037 5.335 7.03 10.318-.01 7.618-6.203 12.534-14.852 12.523-8.59-.012-14.77-4.945-14.759-12.563.007-5.042 2.819-8.759 7.002-10.299C1613.319-277.952 1610.916-280.933 1610.923-285.573zM1616.11-266.091c-.005 4.236 3.196 7.335 8.522 7.343 5.27.007 8.424-3.139 8.43-7.32.006-4.696-3.483-7.221-8.41-7.228C1619.841-273.303 1616.116-270.96 1616.11-266.091zM1632.171-284.742c.006-4.295-2.912-6.647-7.494-6.653-4.465-.006-7.449 2.282-7.454 6.691-.005 3.78 3.085 6.475 7.436 6.481C1629.012-278.217 1632.166-280.963 1632.171-284.742zM1676.202-296.765c11.685.016 14.879 9.184 14.862 21.097-.017 12.142-3.235 21.301-14.92 21.285-11.684-.016-14.878-9.184-14.861-21.325C1661.299-287.621 1664.517-296.781 1676.202-296.765zM1676.194-290.81c-7.619-.01-8.486 7.32-8.497 15.11-.011 8.189.837 15.349 8.456 15.359 7.618.01 8.485-7.147 8.497-15.336C1684.66-283.467 1683.812-290.8 1676.194-290.81zM1712.932-296.715c11.684.016 14.878 9.184 14.861 21.097-.016 12.141-3.235 21.301-14.919 21.284-11.684-.016-14.878-9.184-14.861-21.325C1698.028-287.572 1701.247-296.731 1712.932-296.715zM1712.924-290.759c-7.618-.01-8.486 7.319-8.497 15.11-.011 8.189.838 15.348 8.455 15.359 7.618.01 8.486-7.147 8.497-15.336C1721.389-283.417 1720.541-290.749 1712.924-290.759zM1749.667-296.665c11.684.016 14.878 9.184 14.861 21.097-.017 12.142-3.235 21.301-14.919 21.285-11.684-.016-14.878-9.184-14.861-21.326C1734.763-287.522 1737.981-296.681 1749.667-296.665zM1749.658-290.71c-7.618-.01-8.486 7.32-8.497 15.11-.011 8.189.838 15.349 8.455 15.359 7.618.01 8.486-7.147 8.497-15.337C1758.124-283.367 1757.276-290.699 1749.658-290.71zM1775.964-289.929l-5.328-.008.008-5.955 11.913.017-.057 41.753-6.585-.009L1775.964-289.929zM1821.354-296.567c11.685.016 14.879 9.184 14.862 21.097-.017 12.142-3.235 21.301-14.919 21.285-11.684-.016-14.879-9.184-14.862-21.325C1806.451-287.423 1809.669-296.583 1821.354-296.567zM1821.346-290.612c-7.618-.01-8.486 7.32-8.497 15.11-.011 8.189.837 15.349 8.455 15.359 7.618.01 8.485-7.147 8.496-15.336C1829.812-283.269 1828.964-290.602 1821.346-290.612zM1847.652-289.832l-5.328-.008.008-5.955 11.913.016-.057 41.753-6.585-.009L1847.652-289.832zM1862.685-259.34c9.861-8.635 20.238-16.183 20.25-24.372.006-4.353-1.879-7.334-6.747-7.34-4.582-.006-7.049 3.199-7.228 7.895l-6.3-.009c.24-9.049 6.09-13.451 13.477-13.44 8.478.011 13.282 5.115 13.271 12.616-.014 10.138-10.333 17.857-17.043 23.976l18.155.025-.008 5.44-27.834-.038L1862.685-259.34zM1909.888-296.677c8.306.011 12.823 4.83 12.815 10.9-.007 4.983-3.162 8.357-6.428 9.442v.228c4.351 1.323 7.151 4.937 7.144 10.722-.009 6.643-4.713 11.676-13.417 11.664-7.905-.011-14.027-4.142-14.417-12.334l6.3.009c.281 3.897 3.141 6.878 8.065 6.885 4.869.006 7.28-2.968 7.284-6.865.008-5.498-3.541-7.392-10.357-7.401l-1.49-.002.007-5.384 1.547.002c5.899-.05 9.511-1.763 9.517-6.229.005-3.609-2.34-6.016-6.807-6.023-4.582-.006-6.705 2.738-7.11 5.659l-6.357-.009C1896.653-292.628 1902.271-296.687 1909.888-296.677z"></path><g><rect width="123.673" height="1101.814" x="1398.176" y="-1052.77" fill="#2F627C" transform="rotate(-89.92 1460.028 -501.897)"></rect></g><g><path fill="#91C4F6" d="M1071.453-469.333l-23.7-.033.08-59.245 22.59.031c12.532.017 19.172 6.932 19.161 15.286-.01 7.16-4.364 11.502-10.08 13.539 6.308 1.119 11.415 7.432 11.405 14.509C1090.898-476.213 1083.555-469.317 1071.453-469.333zM1069.562-520.655l-12.022-.017-.023 16.964 12.022.017c6.306.008 10.148-2.968 10.156-8.423C1079.703-517.486 1075.868-520.646 1069.562-520.655zM1070.295-495.76l-12.789-.017-.025 18.498 13.129.018c6.562.009 10.576-3.31 10.583-9.023C1081.202-492.166 1076.772-495.751 1070.295-495.76zM1137.222-481.349l-24.807-.034-4.279 12.099-10.144-.014 21.307-59.299 11.251.015 21.149 59.358-10.231-.014L1137.222-481.349zM1124.909-516.827l-9.755 27.522 19.352.026L1124.909-516.827zM1209.689-528.473l-.081 59.329-9.718-.013-29.179-44.282-.06 44.242-9.717-.013.081-59.329 9.717.013 29.178 44.196.06-44.155L1209.689-528.473zM1232.181-495.625l-.037 26.512-9.717-.014.081-59.245 9.717.013-.037 27.022 23.053-26.99 12.192.017-25.786 29.631 26.128 29.615-12.699-.017L1232.181-495.625zM1325.695-528.999c12.362.017 23.008 6.254 27.511 17.855l-11.678-.016c-3.146-6.314-8.768-9.306-15.844-9.315-11.761-.017-20.296 8.326-20.314 21.711-.019 13.383 8.494 21.835 20.255 21.85 7.076.01 12.706-2.968 15.869-9.272l11.678.016c-4.534 11.589-15.197 17.71-27.559 17.693-16.707-.023-30.242-12.487-30.218-30.3C1295.418-516.508 1308.987-529.021 1325.695-528.999zM1400.256-480.989l-24.807-.034-4.279 12.099-10.144-.014 21.307-59.299 11.251.015 21.145 59.357-10.228-.014L1400.256-480.989zM1387.942-516.468l-9.755 27.522 19.352.026L1387.942-516.468zM1444.507-528.069c14.066.019 20.961 8.129 20.948 17.76-.01 6.99-3.771 14.488-13.749 16.945l14.629 24.57-11.595-.016-13.607-23.715-7.416-.01-.033 23.697-9.717-.013.08-59.245L1444.507-528.069zM1444.496-520.143l-10.741-.015-.027 19.862 10.741.015c7.586.01 11.004-4.16 11.011-10.042C1455.489-516.289 1452.082-520.132 1444.496-520.143zM1528.716-498.118c-.025 18.241-12.485 29.393-31.493 29.366l-19.352-.026.081-59.245 19.351.026C1516.312-527.971 1528.741-516.446 1528.716-498.118zM1497.233-476.679c13.979.019 21.494-7.984 21.512-21.453.019-13.552-7.473-21.92-21.452-21.939l-9.634-.013-.06 43.392L1497.233-476.679z"></path></g><path fill="#91C4F6" d="M1274.104-210.684c-0.01,7.489-6.109,13.589-13.617,13.579l-198.194-0.27
			c-7.472-0.01-13.59-6.127-13.579-13.617l0.159-116.165c0.01-7.472,6.144-13.59,13.616-13.579l198.195,0.271
			c7.507,0.01,13.589,6.145,13.579,13.616L1274.104-210.684z"></path><g><path fill="#2F627C" d="M1986.412,840.876h-620.435c-2.419,0-4.38-1.961-4.38-4.38V701.039c0-2.419,1.961-4.38,4.38-4.38h620.435
			c2.419,0,4.38,1.961,4.38,4.38v135.457C1990.792,838.915,1988.831,840.876,1986.412,840.876z"></path><path fill="#CDEEFF" d="M1490.029 787.127c-13.022 0-22.482-9.058-22.482-23.132 0-14.152 9.22-23.131 22.482-23.131 12.941 0 22.081 8.818 22.081 22.16 0 1.459-.083 2.914-.326 4.369h-32.757c.567 6.631 5.098 10.352 10.758 10.352 4.853 0 7.524-2.427 8.979-5.42h12.212C1508.551 780.578 1501.109 787.127 1490.029 787.127zM1479.111 759.791h21.271c-.161-5.904-4.854-9.625-10.675-9.625C1484.287 750.166 1480 753.644 1479.111 759.791zM1541.169 764.724h-9.46V786.4h-11.324v-56.454h20.784c13.589 0 20.381 7.685 20.381 17.471C1561.551 755.988 1555.729 764.724 1541.169 764.724zM1540.685 755.586c6.388 0 9.22-3.154 9.22-8.169 0-5.176-2.832-8.248-9.22-8.248h-8.976v16.417H1540.685zM1587.135 740.865c7.198 0 12.13 3.398 14.801 7.119v-6.391h11.403V786.4h-11.403v-6.553c-2.671 3.882-7.764 7.28-14.883 7.28-11.32 0-20.379-9.302-20.379-23.292C1566.675 749.844 1575.733 740.865 1587.135 740.865zM1590.046 750.812c-6.065 0-11.808 4.531-11.808 13.023 0 8.491 5.743 13.345 11.808 13.345 6.226 0 11.89-4.692 11.89-13.184C1601.936 755.504 1596.272 750.812 1590.046 750.812zM1655.262 741.592h12.052l-27.741 65.996h-12.052l9.707-22.322-17.955-43.675h12.697l11.568 31.301L1655.262 741.592zM1736.089 761.652c0-7.119-3.964-10.84-9.947-10.84-6.068 0-10.03 3.721-10.03 10.84V786.4h-11.323v-24.748c0-7.119-3.965-10.84-9.947-10.84-6.148 0-10.109 3.721-10.109 10.84V786.4h-11.323v-44.807h11.323v5.42c2.829-3.721 7.6-6.066 13.181-6.066 6.958 0 12.7 2.993 15.772 8.575 2.911-5.097 8.814-8.575 15.367-8.575 10.757 0 18.357 6.793 18.357 19.168V786.4h-11.321V761.652zM1777.785 787.127c-13.023 0-22.483-9.058-22.483-23.132 0-14.152 9.219-23.131 22.483-23.131 12.94 0 22.078 8.818 22.078 22.16 0 1.459-.079 2.914-.323 4.369h-32.756c.566 6.631 5.097 10.352 10.757 10.352 4.854 0 7.524-2.427 8.979-5.42h12.213C1796.306 780.578 1788.865 787.127 1777.785 787.127zM1766.866 759.791h21.27c-.161-5.904-4.853-9.625-10.675-9.625C1772.042 750.166 1767.755 753.644 1766.866 759.791zM1839.52 761.652c0-7.198-3.964-11.08-9.947-11.08-6.147 0-10.109 3.882-10.109 11.08V786.4h-11.323v-44.807h11.323v5.581c2.911-3.8 7.764-6.227 13.504-6.227 10.434 0 17.876 6.793 17.876 19.168V786.4h-11.324V761.652zM1863.409 750.894h-5.337v-9.302h5.337v-11.08h11.403v11.08h10.03v9.302h-10.03v21.676c0 2.993 1.215 4.287 4.774 4.287h5.256v9.543h-7.116c-8.574 0-14.317-3.638-14.317-13.912V750.894z"></path></g><g><path fill="#CDEEFF" d="M995.073-776.799c-39.47-39.472-103.463-39.472-142.933,0c-6.249-6.25-12.499-12.498-18.749-18.748
			c49.825-49.823,130.605-49.823,180.43,0C1007.572-789.297,1001.322-783.049,995.073-776.799z"></path><path fill="#CDEEFF" d="M1018.595-823.199c-52.461-52.461-137.516-52.461-189.977,0c-6.249-6.25-12.498-12.498-18.748-18.748
			c62.815-62.814,164.658-62.814,227.473,0C1031.093-835.697,1024.844-829.449,1018.595-823.199z"></path><path fill="#CDEEFF" d="M1049.858-869.596c-69.727-69.729-182.776-69.729-252.504,0c-6.249-6.251-12.498-12.498-18.748-18.749
			c80.082-80.083,209.919-80.083,290,0C1062.357-882.097,1056.108-875.848,1049.858-869.596z"></path></g><g><polygon fill="#11405C" points="1346.729 388.197 1373.892 378.084 1594.671 377.175 1619.537 384.898"></polygon><path fill="#549BEC" d="M1346.729,388.197l21.815,152.679c0,0,3.894,16.772,15.352,16.634l202.58-2.45
				c11.458-0.138,14.96-17,14.96-17l18.102-153.162L1346.729,388.197z M1395.172,536.246c-0.252,0.037-0.489,0.057-0.725,0.06
				c-2.772,0.033-5.2-2.143-5.607-5.206l-14.076-107.173c-0.44-3.304,1.702-6.381,4.75-6.848c0.237-0.037,0.474-0.057,0.696-0.06
				c2.787-0.034,5.245,2.176,5.652,5.239l14.075,107.14C1400.377,532.719,1398.25,535.795,1395.172,536.246z M1424.451,536.271
				c-0.119,0.001-0.236,0.021-0.355,0.022c-2.95,0.035-5.455-2.382-5.687-5.601l-7.814-107.905c-0.231-3.322,2.06-6.246,5.156-6.508
				c0.118-0.001,0.236-0.019,0.355-0.021c2.935-0.035,5.44,2.399,5.671,5.601l7.812,107.905
				C1429.839,533.087,1427.532,536.009,1424.451,536.271z M1456.113,535.939l-0.267,0.003c-2.964,0.035-5.47-2.467-5.642-5.705
				l-5.902-108.031c-0.189-3.341,2.178-6.195,5.26-6.388l0.267-0.003c2.979-0.036,5.485,2.467,5.658,5.705l5.902,108.031
				C1461.576,532.892,1459.209,535.747,1456.113,535.939z M1491.851,529.51c0.041,3.359-2.431,6.095-5.544,6.134
				c-1.542,0.019-2.943-0.637-3.979-1.727c-1.021-1.09-1.662-2.599-1.682-4.27l-1.308-108.19c-0.04-3.359,2.431-6.095,5.515-6.133
				c1.557-0.019,2.973,0.636,3.994,1.727c1.036,1.073,1.677,2.582,1.697,4.271L1491.851,529.51z M1522.3,529.366
				c-0.109,3.241-2.554,5.804-5.518,5.84l-0.267,0.003c-3.099-0.117-5.52-2.915-5.426-6.259l3.287-108.142
				c0.109-3.241,2.554-5.804,5.518-5.84l0.267-0.003c3.1,0.118,5.521,2.915,5.428,6.26L1522.3,529.366z M1554.08,529.051
				c-0.154,3.224-2.584,5.701-5.534,5.737c-0.118,0.001-0.238-0.015-0.356-0.014c-3.085-0.186-5.463-3.053-5.31-6.38l5.202-108.062
				c0.154-3.207,2.599-5.701,5.534-5.737c0.118-0.001,0.238,0.014,0.356,0.013c3.101,0.187,5.477,3.053,5.311,6.381L1554.08,529.051
				z M1595.145,421.262l-11.494,107.482c-0.318,3.072-2.708,5.306-5.48,5.34c-0.236,0.003-0.474-0.012-0.727-0.043
				c-3.073-0.377-5.274-3.4-4.928-6.73l11.494-107.449c0.319-3.071,2.723-5.341,5.51-5.374c0.222-0.003,0.459,0.011,0.698,0.043
				C1593.29,414.925,1595.491,417.949,1595.145,421.262z"></path><path fill="#11405C" d="M1409.788 407.879c-.91 3.619-4.581 5.815-8.199 4.905-3.619-.909-5.815-4.58-4.906-8.199.909-3.618 4.58-5.815 8.199-4.905C1408.501 400.589 1410.697 404.26 1409.788 407.879zM1565.735 404.702c-.91 3.618-4.581 5.815-8.2 4.906-3.619-.91-5.815-4.581-4.906-8.2.91-3.619 4.581-5.815 8.2-4.905C1564.448 397.412 1566.645 401.083 1565.735 404.702z"></path><polygon fill="#11405C" points="1405.062 410.511 1359.029 474.286 1357.456 463.219"></polygon><polygon fill="#11405C" points="1559.98 409.813 1609.925 466.224 1609.064 480.955"></polygon><path fill="#91C4F6" d="M1627.666 480.122c1.676-1.485 1.484-4.464-.429-6.623l-63.713-71.963c-1.912-2.159-4.848-2.713-6.523-1.228-1.676 1.484-1.483 4.465.429 6.624l63.713 71.963C1623.055 481.053 1625.989 481.605 1627.666 480.122zM1334.825 483.702c-1.676-1.484-1.483-4.464.429-6.623l63.714-71.962c1.912-2.16 4.847-2.713 6.523-1.229 1.676 1.483 1.483 4.464-.429 6.623l-63.713 71.963C1339.436 484.633 1336.501 485.186 1334.825 483.702z"></path><g><path fill="#FFF" d="M1701.357 415.408h210.8c6.1 0 11.05-4.949 11.05-11.056 0-6.106-4.949-11.051-11.05-11.051h-210.8c-6.104 0-11.058 4.945-11.058 11.051C1690.299 410.459 1695.253 415.408 1701.357 415.408zM1947.771 415.408h30.058c6.102 0 11.051-4.949 11.051-11.056 0-6.106-4.949-11.051-11.051-11.051h-30.058c-6.102 0-11.054 4.945-11.054 11.051C1936.717 410.459 1941.669 415.408 1947.771 415.408zM1747.399 511.201h-46.042c-6.104 0-11.058 4.947-11.058 11.052 0 6.109 4.953 11.058 11.058 11.058h46.042c6.102 0 11.052-4.949 11.052-11.058C1758.45 516.148 1753.501 511.201 1747.399 511.201zM1861.618 511.201h-78.601c-6.104 0-11.054 4.947-11.054 11.052 0 6.109 4.949 11.058 11.054 11.058h78.601c6.104 0 11.056-4.949 11.056-11.058C1872.673 516.148 1867.722 511.201 1861.618 511.201zM1977.829 452.251h-127.268c-6.102 0-11.052 4.949-11.052 11.052 0 6.107 4.949 11.052 11.052 11.052h127.268c6.102 0 11.051-4.945 11.051-11.052C1988.88 457.2 1983.932 452.251 1977.829 452.251zM1701.357 474.354h113.586c6.107 0 11.059-4.945 11.059-11.052 0-6.102-4.952-11.052-11.059-11.052h-113.586c-6.104 0-11.058 4.949-11.058 11.052C1690.299 469.409 1695.253 474.354 1701.357 474.354z"></path></g></g><g><path fill="#FFF" d="M1511.174 235.056c-14.709-1.255-25.196-9.121-25.539-22.803h17.103c.455 5.246 3.191 8.779 8.436 9.918v-21.775c-11.742-2.964-25.539-6.269-25.539-23.145 0-13.454 10.718-22.232 25.539-23.371v-9.233h7.297v9.233c14.251 1.139 23.829 8.778 24.854 22.347h-17.214c-.458-4.448-3.191-7.866-7.639-9.236v21.548c11.857 3.079 25.765 6.157 25.765 23.029 0 11.63-9.12 22.463-25.765 23.602v9.233h-7.297V235.056zM1511.174 186.373v-19.724c-5.245.797-8.893 3.991-8.893 9.806C1502.281 181.813 1505.929 184.549 1511.174 186.373zM1518.471 202.449v19.953c5.815-1.027 9.236-5.018 9.236-10.148C1527.706 206.897 1523.828 204.272 1518.471 202.449zM1596.41 166.08h-11.061v-14.709h27.478v83.116h-16.417V166.08zM1637.437 235.284c-5.815 0-9.921-4.103-9.921-9.349 0-5.245 4.106-9.348 9.921-9.348 5.588 0 9.691 4.103 9.691 9.348C1647.128 231.181 1643.025 235.284 1637.437 235.284zM1714.039 151.145v14.024h-36.938v19.496c3.079-3.763 9.349-6.727 16.302-6.727 19.381 0 25.996 14.593 25.996 27.477 0 16.987-9.806 29.072-28.732 29.072-17.899 0-28.159-9.918-29.529-23.487h15.506c1.37 5.815 6.046 10.033 13.796 10.033 9.348 0 13.566-6.612 13.566-15.391 0-9.348-4.672-14.482-13.681-14.482-6.612 0-10.83 3.649-12.539 8.782h-15.278v-48.798H1714.039zM1762.35 149.777c23.487 0 30.784 18.012 30.784 42.068 0 24.284-7.297 42.414-30.784 42.414-23.487 0-30.784-18.13-30.784-42.414C1731.566 167.789 1738.863 149.777 1762.35 149.777zM1762.35 164.598c-13.454 0-15.051 12.996-15.051 27.247 0 14.824 1.597 27.593 15.051 27.593 13.454 0 15.048-12.769 15.048-27.593C1777.398 177.594 1775.804 164.598 1762.35 164.598zM1835.969 149.777c23.487 0 30.784 18.012 30.784 42.068 0 24.284-7.297 42.414-30.784 42.414-23.487 0-30.783-18.13-30.783-42.414C1805.185 167.789 1812.482 149.777 1835.969 149.777zM1835.969 164.598c-13.454 0-15.051 12.996-15.051 27.247 0 14.824 1.597 27.593 15.051 27.593 13.454 0 15.047-12.769 15.047-27.593C1851.016 177.594 1849.423 164.598 1835.969 164.598z"></path></g></g><g><path fill="#D7A28E" d="M2298.883-258.423c0,0,340.386-107.401,365.552-96.333c25.165,11.068,28.466,50.899,22.268,77.983
				c-14.094,61.598-369.002,78.784-369.002,78.784L2298.883-258.423z"></path><path fill="#C18C7C" d="M2339.68-271.106c3.634-0.921,275.538-90.492,277.341-77.924
				C2618.825-336.463,2339.68-271.106,2339.68-271.106z"></path><path fill="#CDEEFF" d="M2349.324-78.061c4.034-21.378,8.069-42.756,12.104-64.134c3.465-18.365,7.855-36.881,8.865-55.594
					c1.817-33.646-13.986-62.366-44.896-76.715c-15.68-7.279-33.115-10.072-50.303-10.183c-12.875-0.083-28.039,0.76-36.404,12.045
					c-9.481,12.792-0.484,25.991,8.438,36.186c10.438,11.928,35.223,22.172,33.929,40.325
					c-0.885,12.431-10.705,21.636-18.836,29.986c-6.69,6.869-13.041,14.019-18.888,21.623
					c-10.531,13.699-27.494,34.307-25.774,52.756c0.444,4.765,7.969,4.954,7.52,0.134c-1.461-15.66,13.58-34.139,22.566-46.186
					c9.443-12.661,21.46-22.888,31.135-35.257c7.28-9.307,12.436-21.603,8.459-33.423c-3.979-11.825-15.831-17.897-24.779-25.445
					c-6.296-5.31-12.369-11.586-16.716-18.609c-7.266-11.738-1-21.723,11.379-25.143c15.487-4.279,35.642-1.434,50.789,2.78
					c34.616,9.629,56.406,36.956,54.958,73.24c-0.77,19.274-5.459,38.4-9.024,57.296c-3.912,20.731-7.825,41.461-11.737,62.191
					C2341.219-75.471,2348.427-73.307,2349.324-78.061L2349.324-78.061z"></path><polygon fill="#91C4F6" points="2426.919 409.559 2062.975 344.678 2132.403 -180.044 2450.619 -152.337"></polygon><polygon fill="#549BEC" points="2450.619 -152.337 2465.07 -139.961 2475.654 -150.156 2504.307 375.673 2476.148 382.108 2426.919 409.559"></polygon><path fill="#549BEC" d="M2213.871-97.038c0 7.6-4.401 13.76-9.829 13.76-5.428 0-9.829-6.161-9.829-13.76 0-7.599 4.401-13.76 9.829-13.76C2209.47-110.797 2213.871-104.637 2213.871-97.038zM2337.176-91.081c0 7.37-4.267 13.344-9.531 13.344s-9.531-5.974-9.531-13.344c0-7.369 4.267-13.343 9.531-13.343S2337.176-98.45 2337.176-91.081z"></path><path fill="#CDEEFF" d="M2331.158-86.134c4.034-21.378,8.069-42.756,12.103-64.134c3.466-18.365,7.855-36.881,8.866-55.594
					c1.817-33.647-13.986-62.367-44.896-76.716c-15.68-7.279-33.115-10.072-50.303-10.183c-12.875-0.083-28.04,0.76-36.404,12.045
					c-9.481,12.792-0.484,25.991,8.438,36.186c10.439,11.928,35.222,22.172,33.929,40.325
					c-0.885,12.431-10.705,21.636-18.837,29.986c-6.689,6.869-13.04,14.019-18.887,21.624
					c-10.531,13.698-27.494,34.307-25.774,52.755c0.444,4.766,7.968,4.954,7.519,0.134c-1.46-15.66,13.581-34.139,22.567-46.186
					c9.443-12.661,21.46-22.888,31.135-35.257c7.28-9.307,12.436-21.603,8.459-33.423c-3.979-11.825-15.831-17.897-24.779-25.445
					c-6.296-5.31-12.369-11.587-16.716-18.61c-7.266-11.738-1-21.723,11.379-25.143c15.487-4.279,35.642-1.434,50.789,2.78
					c34.616,9.629,56.406,36.956,54.958,73.24c-0.769,19.274-5.458,38.4-9.023,57.297c-3.913,20.73-7.825,41.46-11.737,62.19
					C2323.053-83.544,2330.261-81.38,2331.158-86.134L2331.158-86.134z"></path><g><path fill="#D7A28E" d="M2272.422-272.134c-19.136-1.821-36.414,4.495-43.492,7.563c-12.009,5.227-48.048,36.774-48.048,36.774
				s3.415,5.612,5.777,6.88c3.839,2.059,11.645-0.171,19.042-4.966c-4.463,4.232-11.876,12.769-11.876,12.769
				s5.561,5.357,8.208,5.856c3.544,0.667,10.245-1.918,14.808-5.096c-2.84,3.328-7.969,8.675-7.969,8.675s6.919,5.328,9.617,5.426
				c5.131,0.186,12.548-4.586,18.702-9.091c-3.989,3.879-9.214,12.053-9.214,12.053s7.12,3.512,9.568,3.663
				c9.509,0.588,32.545-17.297,32.545-17.297c22.801,15.349,40.257,12.811,52.267,9.924c2.894-0.734-11.539-61.741-11.539-61.741
				S2286.71-270.805,2272.422-272.134z"></path><path fill="#C18C7C" d="M2231.897-245.135c.113.239-1.446 1.18-3.873 2.815-2.426 1.64-5.73 3.97-9.287 6.689-7.124 5.423-12.709 10.103-13.035 9.749-.323-.341 4.786-5.633 11.994-11.122 3.595-2.749 7.072-4.963 9.701-6.361C2230.034-244.762 2231.809-245.328 2231.897-245.135zM2241.407-231.22c.127.217-1.252 1.27-3.464 2.972-2.417 1.885-5.359 4.177-8.61 6.712-6.71 5.273-12.176 9.546-12.492 9.183-.31-.354 4.673-5.23 11.428-10.538 3.375-2.655 6.566-4.896 8.984-6.361C2239.673-230.718 2241.295-231.414 2241.407-231.22zM2249.206-216.678c.3.369-2.623 3.241-6.529 6.415-3.906 3.173-7.315 5.447-7.616 5.078-.3-.369 2.623-3.241 6.529-6.415C2245.496-214.774 2248.906-217.047 2249.206-216.678z"></path></g><g><path fill="#D7A28E" d="M2242.649-545.347c0,0,18.383-9.91-2.573-28.559c-20.961-18.649-35.942-7.312-33.649,1.48
					s3.11,14.604,17.882,19.114c0,0-13.271,2.079-12.169,12.32c1.104,10.241,9.79,15.671,9.79,15.671s-12.168-0.59-14.061,4.317
					c-1.893,4.907,2.599,17.399,15.007,22.428c0,0-13.188,3.662-4.973,17.665c8.216,14.003,10.627,9.292,10.627,9.292l-0.333,18.971
					c0,0,24.662-7.774,15.906-36.633c0,0,15.364-12.037-2.361-26.541C2241.742-515.819,2264.314-530.26,2242.649-545.347z"></path><path fill="#C18C7C" d="M2242.401-545.292c-.575.679-4.39-1.919-9.5-4.027-5.091-2.196-9.543-3.015-9.547-3.794-.053-.865 5.094-1.344 10.694 1.068C2239.682-549.701 2242.92-545.823 2242.401-545.292zM2242.365-515.817c-.303.308-1.421-.276-3.214-1.121-1.798-.854-4.318-1.967-7.143-3.173-5.651-2.414-10.311-4.411-10.078-5.208.218-.773 5.366-.019 11.244 2.489 2.933 1.252 5.47 2.744 7.112 4.135C2241.938-517.303 2242.639-516.086 2242.365-515.817zM2244.103-489.279c-.353.281-1.418-.516-3.218-1.52-1.819-.998-4.443-2.169-7.485-3.247-6.075-2.174-11.282-3.48-11.161-4.311.09-.786 5.687-.781 12.166 1.529 3.229 1.141 6.002 2.754 7.706 4.333C2243.82-490.889 2244.396-489.495 2244.103-489.279z"></path></g></g><g><path fill="#FFC439" d="M2808.613,7.231l-100.571,44.55l5.27,48.611l84.975,191.931l13.64-5.981l100.53-44.546l13.599-6.034
				L2841.03,43.872L2808.613,7.231z M2772.416,61.426c-5.896,2.615-12.785-0.103-15.42-5.969
				c-2.608-5.943,0.014-12.884,5.974-15.522c5.871-2.595,12.865,0.041,15.514,5.98C2781.052,51.861,2778.376,58.788,2772.416,61.426
				z"></path><path fill="#DBA12C" d="M2788.961,117.105l-3.5-7.878l13.653-6.019l3.552,7.837c12.933-2.76,23.055,3.643,29.404,18.089
					l1.503,3.306l-15.84,7.037l-1.978-4.391c-3.349-7.632-7.685-9.188-12.964-6.806c-5.32,2.33-7.077,6.572-3.742,14.187
					c9.693,21.857,42.896,8.437,56.343,38.927c6.346,14.392,4.225,26.464-6.546,34.117l3.459,7.77l-13.692,6.079l-3.471-7.789
					c-13.089,2.883-23.229-3.702-29.616-18.146l-3.182-7.315l15.748-6.937l3.683,8.324c3.401,7.591,7.956,8.891,13.236,6.508
					c5.346-2.351,7.5-6.567,4.125-14.18c-9.693-21.914-42.883-8.476-56.301-38.876
					C2776.474,136.651,2778.378,124.891,2788.961,117.105z"></path><path fill="#F2CD33" d="M1655.929-851.293l-36.067,185.709c0,0,116.819,59.101,121.076,54.823
			c4.257-4.277,77.999-179.885,77.999-179.885L1655.929-851.293z"></path><path fill="#DBA12C" d="M1715.719-769.357c8.122,3.53,11.269,10.792,5.471,19.454c-5.711,8.699-14.791,10.648-22.914,7.119
				c-8.208-3.567-11.354-10.829-5.642-19.528C1698.432-770.974,1707.597-772.886,1715.719-769.357z M1742.622-756.65l14.107,6.131
				l-69.76,41.242l-14.107-6.131L1742.622-756.65z M1702.809-757.891c-2.393,3.636-1.976,5.951,0.589,7.065
				c2.565,1.115,5.311,0.174,7.704-3.462c2.393-3.636,1.891-5.988-0.674-7.103C1707.863-762.505,1705.202-761.527,1702.809-757.891z
				 M1731.484-723.068c8.123,3.53,11.183,10.755,5.386,19.417c-5.712,8.699-14.791,10.648-22.914,7.119
				c-8.122-3.53-11.268-10.792-5.471-19.454C1714.196-724.686,1723.362-726.598,1731.484-723.068z M1718.488-711.64
				c-2.393,3.636-1.976,5.951,0.674,7.103c2.479,1.077,5.226,0.137,7.619-3.499c2.393-3.636,1.89-5.988-0.588-7.065
				C1723.627-716.216,1720.881-715.275,1718.488-711.64z"></path><g><path fill="#F2CD33" d="M2574.106-997.902l101.107,244.718c0,0,182.021-21.072,183.695-29.35
			c1.673-8.279-47.64-270.257-47.64-270.257L2574.106-997.902z"></path><path fill="#DBA12C" d="M2707.134-948.318c12.209-2.142,21.484,3.913,21.395,18.501c0.038,14.565-9.064,23.845-21.273,25.988
				c-12.338,2.164-21.613-3.891-21.651-18.457C2685.695-936.873,2694.925-946.176,2707.134-948.318z M2748.355-954.225l21.204-3.72
				l-49.668,101.971l-21.204,3.72L2748.355-954.225z M2700.898-924.969c0.009,6.092,2.282,8.475,6.137,7.799
				c3.855-0.677,6.338-3.893,6.328-9.986c-0.009-6.092-2.41-8.452-6.265-7.776C2703.243-934.255,2700.889-931.061,2700.898-924.969z
				 M2761.248-906.414c12.209-2.142,21.356,3.936,21.266,18.524c0.039,14.565-9.063,23.845-21.272,25.988
				c-12.209,2.142-21.484-3.914-21.395-18.502C2739.808-894.97,2749.039-904.272,2761.248-906.414z M2754.883-883.042
				c0.009,6.092,2.282,8.475,6.265,7.776c3.727-0.654,6.21-3.871,6.2-9.963c-0.009-6.092-2.41-8.452-6.136-7.799
				C2757.356-892.351,2754.874-889.135,2754.883-883.042z"></path></g></g></svg>